<svg xmlns="http://www.w3.org/2000/svg" xmlns:xlink="http://www.w3.org/1999/xlink" xmlns:svgjs="http://svgjs.com/svgjs" version="1.1" width="512" height="512" x="0" y="0" viewBox="0 0 459.595 459.595" style="enable-background:new 0 0 512 512" xml:space="preserve" class=""><g><g><g><path d="m229.798 436.616c-6.095 0-11.939-2.422-16.249-6.731l-85.188-85.189h-59.422c-18.417 0-35.729-7.171-48.749-20.193-13.019-13.022-20.19-30.333-20.19-48.746v-183.838c0-18.415 7.171-35.727 20.192-48.747s30.333-20.192 48.747-20.192h321.717c18.413 0 35.725 7.171 48.746 20.191 13.021 13.019 20.193 30.331 20.193 48.748v183.838c0 18.415-7.172 35.728-20.194 48.747-13.018 13.02-30.33 20.191-48.745 20.191h-59.42l-85.188 85.189c-4.31 4.31-10.156 6.732-16.25 6.732zm-160.859-367.677c-6.139 0-11.909 2.391-16.249 6.73-4.34 4.34-6.73 10.111-6.73 16.249v183.838c0 6.137 2.391 11.908 6.731 16.249 4.34 4.34 10.11 6.729 16.249 6.729h68.939c6.095 0 11.939 2.422 16.249 6.731l75.67 75.671 75.67-75.671c4.31-4.31 10.154-6.731 16.249-6.731h68.939c6.138 0 11.908-2.389 16.247-6.729 4.342-4.341 6.731-10.111 6.731-16.249v-183.837c0-6.139-2.389-11.909-6.728-16.248-4.342-4.341-10.113-6.732-16.25-6.732zm137.879 183.839h-91.919c-12.692 0-22.98-10.289-22.98-22.98 0-12.692 10.288-22.98 22.98-22.98h91.919c12.692 0 22.98 10.288 22.98 22.98 0 12.691-10.289 22.98-22.98 22.98zm137.878-91.92h-229.797c-12.692 0-22.98-10.288-22.98-22.98s10.288-22.98 22.98-22.98h229.798c12.692 0 22.98 10.288 22.98 22.98 0 12.691-10.289 22.98-22.981 22.98z" fill="#484848" data-original="#000000" class=""/></g></g></g></svg>